<?xml version="1.0" encoding="iso-8859-1"?>
<!-- Generator: Adobe Illustrator 19.0.0, SVG Export Plug-In . SVG Version: 6.00 Build 0)  -->
<svg version="1.1" id="Layer_1" xmlns="http://www.w3.org/2000/svg" xmlns:xlink="http://www.w3.org/1999/xlink" x="0px" y="0px"
	 viewBox="0 0 491.52 491.52" style="enable-background:new 0 0 491.52 491.52;" xml:space="preserve">
<path style="fill:#FCD462;" d="M198.554,388.132c-1.581,4.85-2.461,10.015-2.461,15.391c0,27.428,49.661,87.997,49.661,87.997
	s49.661-60.568,49.661-87.997c0-5.377-0.88-10.542-2.461-15.391H198.554z"/>
<path style="fill:#E56353;" d="M210.324,388.132c-1.187,3.64-1.848,7.518-1.848,11.555c0,20.587,37.279,66.054,37.279,66.054
	s37.278-45.467,37.278-66.054c0-4.037-0.66-7.914-1.848-11.555H210.324z"/>
<g>
	<path style="fill:#FCD462;" d="M219.852,388.132c-0.868,2.661-1.352,5.496-1.352,8.447c0,15.052,27.255,48.292,27.255,48.292
		s27.253-33.24,27.253-48.292c0-2.951-0.482-5.786-1.35-8.447H219.852z"/>
	<path style="fill:#FCD462;" d="M287.582,420.215c-0.59,1.809-0.918,3.736-0.918,5.742c0,10.231,18.526,32.827,18.526,32.827
		s18.526-22.596,18.526-32.827c0-2.005-0.328-3.932-0.918-5.742H287.582z"/>
</g>
<path style="fill:#E56353;" d="M291.973,420.215c-0.442,1.358-0.689,2.804-0.689,4.31c0,7.68,13.906,24.641,13.906,24.641
	s13.906-16.961,13.906-24.641c0-1.506-0.247-2.952-0.689-4.31H291.973z"/>
<g>
	<path style="fill:#FCD462;" d="M295.527,420.215c-0.323,0.992-0.504,2.05-0.504,3.151c0,5.615,10.168,18.015,10.168,18.015
		s10.167-12.4,10.167-18.015c0-1.101-0.18-2.159-0.504-3.151H295.527z"/>
	<path style="fill:#FCD462;" d="M168.711,420.215c-0.59,1.809-0.919,3.736-0.919,5.742c0,10.231,18.527,32.827,18.527,32.827
		s18.526-22.596,18.526-32.827c0-2.005-0.329-3.932-0.918-5.742H168.711z"/>
</g>
<path style="fill:#E56353;" d="M173.102,420.215c-0.444,1.358-0.69,2.804-0.69,4.31c0,7.68,13.907,24.641,13.907,24.641
	s13.906-16.961,13.906-24.641c0-1.506-0.247-2.952-0.689-4.31H173.102z"/>
<path style="fill:#FCD462;" d="M176.656,420.215c-0.323,0.992-0.504,2.05-0.504,3.151c0,5.615,10.168,18.015,10.168,18.015
	s10.166-12.4,10.166-18.015c0-1.101-0.18-2.159-0.503-3.151H176.656z"/>
<path style="fill:#64798A;" d="M245.755,0L245.755,0c-35.81,0-64.839,53.152-64.839,88.961v299.171h129.678V88.961
	C310.593,53.152,281.564,0,245.755,0z"/>
<path style="fill:#FFFFFF;" d="M245.755,97.032L245.755,97.032c-32.826,0-59.436,39.865-59.436,66.722v224.378H305.19V163.754
	C305.19,136.898,278.58,97.032,245.755,97.032z"/>
<path style="fill:#EBF0F3;" d="M245.753,129.198c-22.352,0-43.35,15.508-43.35,34.557v16.083c0-19.049,20.998-34.557,43.35-34.557
	c22.357,0,43.355,15.508,43.355,34.557v-16.083C289.108,144.706,268.11,129.198,245.753,129.198z"/>
<polygon style="fill:#E1E6E9;" points="454.23,354.812 310.143,253.951 310.143,374.624 454.23,374.624 "/>
<g>
	<rect x="310.164" y="374.63" style="fill:#64798A;" width="144.077" height="13.507"/>
	<rect x="37.279" y="374.63" style="fill:#64798A;" width="144.077" height="13.507"/>
</g>
<polygon style="fill:#E1E6E9;" points="37.28,354.812 37.28,374.624 181.366,374.624 181.366,253.951 "/>
<g>
	<path style="fill:#EBF0F3;" d="M186.319,329.033c-10.792,0-19.539,8.747-19.539,19.538v71.644h39.078v-71.644
		C205.858,337.78,197.11,329.033,186.319,329.033z"/>
	<path style="fill:#EBF0F3;" d="M305.19,329.033c-10.792,0-19.539,8.747-19.539,19.538v71.644h39.079v-71.644
		C324.73,337.78,315.982,329.033,305.19,329.033z"/>
</g>
<g>
</g>
<g>
</g>
<g>
</g>
<g>
</g>
<g>
</g>
<g>
</g>
<g>
</g>
<g>
</g>
<g>
</g>
<g>
</g>
<g>
</g>
<g>
</g>
<g>
</g>
<g>
</g>
<g>
</g>
</svg>
